<svg xmlns="http://www.w3.org/2000/svg" fill="none" stroke-linecap="square" stroke-miterlimit="10" viewBox="0 0 802.85826772 100">
  <clipPath id="a">
    <path d="M0 0h802.8583v100H0V0z"/>
  </clipPath>
  <g clip-path="url(#a)">
    <path fill="none" d="M0 0h802.8583v100H0z"/>
    <path fill="#ff8069" fill-rule="evenodd" d="M351.7756.3464567h99.30707v99.30708H351.7756z"/>
    <path fill="#ff6a6a" fill-rule="evenodd" d="M800.5184 50c0 13.168938-5.2313232 25.798508-14.543213 35.11036-9.311829 9.311844-21.941406 14.543182-35.11035 14.543182h-274.5984c-.00045776 0-.0008545-.00036621-.0008545-.00082397l.0008545-99.30626c0-.00045705.00036621-.00082759.00082397-.00082759l274.59756.00082759c27.422913 0 49.653564 22.230648 49.653564 49.65354zM2.339895 50c0-13.168938 5.2313404-25.798512 14.543186-35.11036C26.194927 5.577794 38.824501.346454 51.993441.346454h274.59842c.00045776 0 .00082397.0003705.00082397.00082755l-.00082397 99.30626c0 .00045776-.00036621.0008316-.00082397.0008316l-274.5976-.0008316c-27.422895 0-49.653545-22.230644-49.653545-49.65354z"/>
  </g>
</svg>
